<svg xmlns="http://www.w3.org/2000/svg" viewBox="0 0 490 490" xml:space="preserve">
  <path d="M87.4 135.6c37.4 0 67.8-30.4 67.8-67.8S124.8 0 87.4 0 19.6 30.4 19.6 67.8c.1 37.4 30.5 67.8 67.8 67.8zm0-101.3c18.5 0 33.5 15 33.5 33.5s-15 33.5-33.5 33.5C69 101.3 54 86.3 54 67.8s15-33.5 33.4-33.5zM87.4 312.8c37.4 0 67.8-30.4 67.8-67.8s-30.4-67.8-67.8-67.8-67.8 30.4-67.8 67.8c.1 37.4 30.5 67.8 67.8 67.8zm0-101.3c18.5 0 33.5 15 33.5 33.5s-15 33.5-33.5 33.5C69 278.5 54 263.5 54 245s15-33.5 33.4-33.5zM87.4 490c37.4 0 67.8-30.4 67.8-67.8s-30.4-67.8-67.8-67.8-67.8 30.4-67.8 67.8c.1 37.4 30.5 67.8 67.8 67.8zm0-101.3c18.5 0 33.5 15 33.5 33.5s-15 33.5-33.5 33.5-33.5-15-33.5-33.5c.1-18.5 15.1-33.5 33.5-33.5zM195 64.6c0 9.5 7.7 17.2 17.2 17.2h241c9.5 0 17.2-7.7 17.2-17.2s-7.7-17.2-17.2-17.2h-241c-9.5 0-17.2 7.7-17.2 17.2zM208.9 262.1h241c9.5 0 17.2-7.7 17.2-17.1 0-9.5-7.7-17.2-17.2-17.2h-241c-9.5 0-17.1 7.7-17.1 17.2s7.6 17.1 17.1 17.1zM208.9 439.4h241c9.5 0 17.2-7.7 17.2-17.1s-7.7-17.2-17.2-17.2h-241c-9.5 0-17.1 7.7-17.1 17.2s7.6 17.1 17.1 17.1z"/>
</svg>